HIERARCHY
ROOT hip
{
  OFFSET 0 0 0
  CHANNELS 6 Xposition Yposition Zposition Zrotation Yrotation Xrotation
  JOINT abdomen
  {
    OFFSET 0 20.6881 -0.73152
    CHANNELS 3 Zrotation Xrotation Yrotation
    JOINT chest
    {
      OFFSET 0 11.7043 -0.48768
      CHANNELS 3 Zrotation Xrotation Yrotation
      JOINT neck
      {
        OFFSET 0 22.1894 -2.19456
        CHANNELS 3 Zrotation Xrotation Yrotation
        JOINT head
        {
          OFFSET -0.24384 7.07133 1.2192
          CHANNELS 3 Zrotation Xrotation Yrotation
          JOINT leftEye
          {
            OFFSET 4.14528 8.04674 8.04672
            CHANNELS 3 Zrotation Xrotation Yrotation
            End Site
            {
              OFFSET 1 0 0
            }
          }
          JOINT rightEye
          {
            OFFSET -3.6576 8.04674 8.04672
            CHANNELS 3 Zrotation Xrotation Yrotation
            End Site
            {
              OFFSET 1 0 0
            }
          }
        }
      }
      JOINT rCollar
      {
        OFFSET -2.68224 19.2634 -4.8768
        CHANNELS 3 Zrotation Xrotation Yrotation
        JOINT rShldr
        {
          OFFSET -8.77824 -1.95073 1.46304
          CHANNELS 3 Zrotation Xrotation Yrotation
          JOINT rForeArm
          {
            OFFSET -28.1742 -1.7115 0.48768
            CHANNELS 3 Zrotation Xrotation Yrotation
            JOINT rHand
            {
              OFFSET -22.5879 0.773209 7.07136
              CHANNELS 3 Zrotation Xrotation Yrotation
              JOINT rThumb1
              {
                OFFSET -1.2192 -0.487915 3.41376
                CHANNELS 3 Zrotation Xrotation Yrotation
                JOINT rThumb2
                {
                  OFFSET -3.37035 -0.52449 3.41376
                  CHANNELS 3 Zrotation Xrotation Yrotation
                  End Site
                  {
                    OFFSET -1.78271 -1.18214 1.43049
                  }
                }
              }
              JOINT rIndex1
              {
                OFFSET -7.75947 0.938293 5.60832
                CHANNELS 3 Zrotation Xrotation Yrotation
                JOINT rIndex2
                {
                  OFFSET -2.54057 -0.884171 1.56538
                  CHANNELS 3 Zrotation Xrotation Yrotation
                  End Site
                  {
                    OFFSET -1.62519 -0.234802 1.16502
                  }
                }
              }
              JOINT rMid1
              {
                OFFSET -8.24714 1.18213 3.41376
                CHANNELS 3 Zrotation Xrotation Yrotation
                JOINT rMid2
                {
                  OFFSET -3.10165 -0.590103 1.0647
                  CHANNELS 3 Zrotation Xrotation Yrotation
                  End Site
                  {
                    OFFSET -2.48547 -0.328903 0.83742
                  }
                }
              }
              JOINT rRing1
              {
                OFFSET -8.82822 0.546677 1.51678
                CHANNELS 3 Zrotation Xrotation Yrotation
                JOINT rRing2
                {
                  OFFSET -2.60934 -0.819778 -0.0198488
                  CHANNELS 3 Zrotation Xrotation Yrotation
                  End Site
                  {
                    OFFSET -2.33842 -0.294052 0.168128
                  }
                }
              }
              JOINT rPinky1
              {
                OFFSET -8.27202 -0.0477905 -0.4584
                CHANNELS 3 Zrotation Xrotation Yrotation
                JOINT rPinky2
                {
                  OFFSET -1.82734 -0.647385 -0.700984
                  CHANNELS 3 Zrotation Xrotation Yrotation
                  End Site
                  {
                    OFFSET -1.69225 -0.51767 -0.607171
                  }
                }
              }
            }
          }
        }
      }
      JOINT lCollar
      {
        OFFSET 2.68224 19.2634 -4.8768
        CHANNELS 3 Zrotation Xrotation Yrotation
        JOINT lShldr
        {
          OFFSET 8.77824 -1.95073 1.46304
          CHANNELS 3 Zrotation Xrotation Yrotation
          JOINT lForeArm
          {
            OFFSET 28.1742 -1.7115 0.48768
            CHANNELS 3 Zrotation Xrotation Yrotation
            JOINT lHand
            {
              OFFSET 22.5879 0.773209 7.07136
              CHANNELS 3 Zrotation Xrotation Yrotation
              JOINT lThumb1
              {
                OFFSET 1.2192 -0.487915 3.41376
                CHANNELS 3 Zrotation Xrotation Yrotation
                JOINT lThumb2
                {
                  OFFSET 3.37035 -0.52449 3.41376
                  CHANNELS 3 Zrotation Xrotation Yrotation
                  End Site
                  {
                    OFFSET 1.78271 -1.18214 1.43049
                  }
                }
              }
              JOINT lIndex1
              {
                OFFSET 7.75947 0.938293 5.60832
                CHANNELS 3 Zrotation Xrotation Yrotation
                JOINT lIndex2
                {
                  OFFSET 2.54057 -0.884171 1.56538
                  CHANNELS 3 Zrotation Xrotation Yrotation
                  End Site
                  {
                    OFFSET 1.62519 -0.234802 1.16502
                  }
                }
              }
              JOINT lMid1
              {
                OFFSET 8.24714 1.18213 3.41376
                CHANNELS 3 Zrotation Xrotation Yrotation
                JOINT lMid2
                {
                  OFFSET 3.10165 -0.590103 1.0647
                  CHANNELS 3 Zrotation Xrotation Yrotation
                  End Site
                  {
                    OFFSET 2.48547 -0.328903 0.83742
                  }
                }
              }
              JOINT lRing1
              {
                OFFSET 8.82822 0.546677 1.51678
                CHANNELS 3 Zrotation Xrotation Yrotation
                JOINT lRing2
                {
                  OFFSET 2.60934 -0.819778 -0.0198488
                  CHANNELS 3 Zrotation Xrotation Yrotation
                  End Site
                  {
                    OFFSET 2.33842 -0.294052 0.168128
                  }
                }
              }
              JOINT lPinky1
              {
                OFFSET 8.27202 -0.0477905 -0.4584
                CHANNELS 3 Zrotation Xrotation Yrotation
                JOINT lPinky2
                {
                  OFFSET 1.82734 -0.647385 -0.700984
                  CHANNELS 3 Zrotation Xrotation Yrotation
                  End Site
                  {
                    OFFSET 1.69225 -0.51767 -0.607171
                  }
                }
              }
            }
          }
        }
      }
    }
  }
  JOINT rButtock
  {
    OFFSET -8.77824 4.35084 1.2192
    CHANNELS 3 Zrotation Xrotation Yrotation
    JOINT rThigh
    {
      OFFSET 0 -1.70687 -2.19456
      CHANNELS 3 Zrotation Xrotation Yrotation
      JOINT rShin
      {
        OFFSET 0 -36.8199 0.73152
        CHANNELS 3 Zrotation Xrotation Yrotation
        JOINT rFoot
        {
          OFFSET 0.73152 -45.1104 -5.12064
          CHANNELS 3 Zrotation Xrotation Yrotation
          End Site
          {
            OFFSET -1.1221 -3.69964 12.103
          }
        }
      }
    }
  }
  JOINT lButtock
  {
    OFFSET 8.77824 4.35084 1.2192
    CHANNELS 3 Zrotation Xrotation Yrotation
    JOINT lThigh
    {
      OFFSET 0 -1.70687 -2.19456
      CHANNELS 3 Zrotation Xrotation Yrotation
      JOINT lShin
      {
        OFFSET 0 -36.8199 0.73152
        CHANNELS 3 Zrotation Xrotation Yrotation
        JOINT lFoot
        {
          OFFSET -0.73152 -45.1104 -5.12064
          CHANNELS 3 Zrotation Xrotation Yrotation
          End Site
          {
            OFFSET 1.1221 -3.69964 12.103
          }
        }
      }
    }
  }
}
MOTION
Frames:	7
Frame Time:	0.00833333
-13.653100000000002 81.3272 -32.3289 -0.979013 8.155006 11.898089 5.35902 -8.562693 1.021625 2.010244 -0.257488 -3.561285 14.666251 19.224637 91.983728 -25.200465 17.065188 -59.525181 0.001819 -0.0 -0.002387 -0.003887 0.0 -0.001929 0.163083 -0.990099 -0.218063 75.95149 4.956754 -12.608682 -6.20248 6.445872 90.652229 -5.470237 16.472455 0.126734 -121.364405 30.329168 71.957589 -136.085379 -13.268689 70.918213 159.640244 -69.973119 102.394508 -163.997097 -28.286476 116.498576 173.123896 -66.297896 137.613644 9.046519 -18.180923 -1.1999 -78.57226 -72.041948 -95.86737 14.716773 -0.041176 -4.734949 12.986738 44.344637 10.761155 -23.647595 -39.910466 -23.742186 -0.133323 -0.807147 0.178509 62.653197 13.068222 -52.842177 77.438435 -65.022506 92.727991 -18.567993 -29.702855 -13.769755 173.977307 -11.642992 -89.881815 122.182392 14.521324 -58.172772 90.226168 41.07228 -75.79636 67.132428 52.748179 -46.505257 125.645031 49.840697 -115.274973 11.613168 33.697438 -9.562335 0.000928 0.063791 -0.019533 156.484994 -25.092629 -174.788325 145.497478 13.103623 142.111948 128.077148 -27.861335 125.450431 -0.0 0.000641 0.000131 0.851239 -10.268927 4.764374 6.538261 34.477235 49.133329 -153.009359 7.951656 68.08021 -179.997087 75.749001 -0.002397 -172.807006 40.125399 44.992423 37.472705 33.182164 96.280853 -115.571213 -35.448747 157.222324
-14.1576 81.29079999999999 -32.5923 -1.440007 7.874199 12.094085 5.788685 -8.843593 1.132021 2.109385 -0.258735 -4.049899 -6.089639 23.607448 -93.565841 29.366804 6.243271 124.094451 0.004306 0.0 0.003672 -0.001615 0.0 -0.000564 -142.974414 39.431912 147.390611 0.538148 -28.648931 70.314892 13.225972 70.30552 -132.790579 169.885704 -19.509079 143.387628 -68.481805 37.953947 35.660069 -161.143437 -41.57206 84.053415 12.21636 -21.784813 -5.119152 9.550231 6.47795 -0.102659 -39.290211 53.36497 32.87999 16.045369 -37.04067 -0.745091 -75.672002 -72.116552 -92.828814 -68.897205 -82.314823 -94.886087 -11.663382 -23.130828 -11.069903 -128.309839 -29.018376 -127.060097 80.166038 68.371892 -83.260844 47.328053 -8.86189 27.076021 -178.651871 7.185846 170.949231 11.926568 54.367889 -6.826971 166.631396 -4.304756 -89.771927 -114.846381 -59.264342 -82.617744 43.648505 38.804121 -34.059201 164.492874 -11.338644 -111.987347 -89.036087 -81.392082 -59.761276 -6.662321 -11.016059 0.931866 72.756342 -72.143759 89.771984 -14.713353 -0.897824 4.693252 86.172534 -50.469542 84.539938 147.056674 13.611433 143.094812 -0.043797 0.001947 -0.032848 1.327668 -9.681588 27.291404 18.514582 27.160594 14.661204 -67.286946 38.268756 -10.147779 0.005171 1e-06 0.002585 10.05651 -36.454263 -38.531447 -39.27838 16.529617 -11.066024 14.87882 29.420861 82.901639
-14.645900000000001 81.2146 -32.868399999999994 -1.997888 7.838296 12.32398 4.188874 -10.15187 54.167661 3.031158 -2.967143 -57.852843 0.464989 30.278252 -147.592248 23.097379 28.442938 173.448356 -0.00247 -0.0 0.001288 -0.002015 -0.0 0.004576 -155.613894 -4.236279 161.99145 -62.470868 5.157089 15.09091 -3.31481 -10.367322 -124.260492 165.661547 -30.173249 141.25977 -175.328395 -12.975573 89.797773 -91.835702 12.832421 35.172666 1.339572 -2.205046 -0.738636 -9.280916 25.611883 8.23478 -164.637517 -19.283734 144.733508 145.888275 -73.863989 113.943651 -145.120257 0.226849 -179.199104 -156.279758 63.711269 172.35353 17.31632 60.660292 12.797102 -148.782576 13.129402 -143.434177 -1.671721 -11.458682 2.379039 9.731516 -17.518065 -62.657305 -172.405722 -83.336873 -177.666825 7.210051 44.338486 -4.769462 164.698636 -2.371987 -89.584704 -114.013985 -58.490654 -81.292588 77.6672 43.028453 -64.538766 67.427211 51.977384 -46.872956 36.03694 51.7228 -29.832652 147.954659 31.552778 -134.44114 72.758059 -72.141945 89.77286 149.890861 -26.586912 179.986286 -19.598009 67.707696 -13.097546 25.6004 -40.838018 25.550222 -179.997502 75.747894 -0.002578 -173.669933 64.519608 -172.374925 -15.472396 -34.595256 -106.877174 -70.518274 86.359155 -16.079192 -0.003242 -0.000996 -0.001621 10.696315 -39.93276 -163.602679 -8.140649 -44.482389 -131.932488 -2.958052 -11.141455 -37.117454
-15.0419 81.1043 -33.0514 -2.448047 7.761875 12.397916 7.576863 -13.933616 -151.083568 -3.101902 -3.013269 147.208371 -5.332608 17.109222 -53.327576 20.38979 -10.145153 88.508762 0.000798 0.0 0.00169 0.000798 0.0 0.00169 4.238942 -44.742707 -8.648748 68.197987 15.686266 -48.228022 -8.311446 22.560604 95.176867 -5.13694 14.890863 -0.015494 -7.758888 7.438904 1.682344 7.19123 -7.07598 -0.382201 10.282031 -18.182606 -4.584525 -7.664962 26.190315 7.947121 14.568121 -44.052832 -2.824525 -83.350025 64.289421 75.174991 -72.75762 -72.145188 -89.771262 14.119886 26.362861 -1.075193 2.420126 6.686255 2.213099 3.527815 3.366884 1.000315 -3.542489 -62.053099 13.038269 82.128322 14.279829 -115.851243 77.029208 -68.08651 88.835188 -14.769718 -21.887721 -10.965546 89.136002 38.427947 -50.299313 118.141945 -14.454095 -75.109114 -2.324859 -3.867939 1.260494 -123.026378 -61.396436 -64.893055 0.339696 0.98188 -0.189872 -4.276865 -3.127685 0.413475 145.098477 -1.521675 178.64913 6.812821 -61.11544 27.916357 0.166129 -0.436877 0.155973 128.026867 -30.11443 126.409615 -179.962106 75.749622 -0.031178 -170.24176 66.897119 -54.314438 -31.274932 16.607977 -26.226475 114.957083 46.721093 -18.82786 0.0 0.000855 -0.001232 11.037925 -39.079793 7.181596 -15.521442 41.305469 -43.93004 39.862718 -71.637929 124.141545
-15.374099999999999 80.9684 -33.2041 -2.710982 7.658061 12.26101 4.230064 -12.798577 107.224724 1.038088 -5.409474 -112.150826 13.257006 16.146305 68.461338 -24.95121 6.394849 -34.87955 -0.001523 0.0 -0.000897 -0.001083 -0.0 0.002402 3.238116 -26.386777 -5.174144 118.459753 55.789417 -56.822761 179.132732 41.857024 57.178604 170.181992 -19.258775 143.395203 11.508976 -11.487134 -0.622233 23.627426 -59.00254 -26.476076 -151.095532 -16.678205 121.050939 -159.167503 -11.020959 119.524753 5.892328 -18.352095 -2.544082 -5.021547 21.308332 4.419422 -0.008145 3.559261 1.118088 4.016668 41.428823 7.696252 -26.562457 -38.861762 -25.604758 2.192748 -2.736894 -1.175211 155.537864 -3.733087 -161.88562 -71.890185 22.392564 45.580118 -78.838514 -62.52864 -46.005447 -176.899911 24.271403 -152.624792 121.364745 30.330117 -71.958402 149.093671 -18.192514 -74.367743 8.572354 12.508674 -5.450083 -104.45706 -61.883477 -51.215145 159.365316 -2.685373 -142.597811 -80.989918 -77.627847 -52.527368 0.006789 3.560868 -1.120212 152.453554 28.320706 -167.400452 12.376699 -24.157742 11.75749 165.083118 69.646081 148.758212 -179.998171 75.750952 -0.0 -170.697303 67.729616 -10.037862 -9.541228 31.382203 -64.989752 1.762146 -31.366477 69.562433 -179.984794 75.750951 -0.010404 -169.022015 34.515967 -6.091741 -9.262279 41.493167 -1.097503 70.295356 21.023274 0.947743
-15.6336 80.7819 -33.289699999999996 -2.888843 7.433241 12.116101 5.168302 -14.150757 143.137419 -1.129297 -5.349445 -148.448928 14.538583 19.529684 87.717866 -24.735487 15.250265 -52.186044 -0.004869 0.0 -0.001697 0.00084 -0.0 -0.002103 -13.743188 42.431713 15.568627 59.690557 22.067856 39.120547 0.700413 -29.068295 89.727666 -7.705046 22.1106 0.558867 -173.770623 -11.439876 89.8921 -71.733884 3.486429 21.232291 -158.402369 -30.15577 122.604893 -61.39932 57.368662 46.588659 -153.321316 13.629181 138.862755 80.988368 -77.639811 52.467477 -0.014017 -1.322966 -0.417103 7.943685 23.998817 3.534771 -1.176944 -2.985607 -1.091821 15.214751 43.99283 8.722382 80.165895 68.371987 -83.260863 39.237299 22.123015 25.410326 -5.062997 -30.070559 41.730339 -151.702117 -39.611063 -137.4822 121.36564 30.330567 -71.958173 167.583933 -26.075778 -77.168055 -174.382033 -63.05989 -113.273273 10.455424 37.217537 -5.995339 0.057899 0.167867 -0.031733 163.731209 -6.174168 -143.491823 0.014526 -1.323187 0.415653 -7.944896 23.998857 -3.531774 25.539654 -38.087075 24.598485 136.385041 -14.986079 134.686371 -0.001755 0.001239 -0.001755 3.916033 -9.768453 -180.0 -3.386765 -29.672501 -136.543216 -29.010274 13.602447 -43.463288 0.000658 -0.001508 0.000329 13.347363 -42.993571 -160.815392 -6.801517 -47.202011 -153.221195 41.443366 -18.565308 -16.72135
-15.8198 80.5566 -33.3326 -2.950933 7.155903 12.052001 7.218214 -14.649822 -165.695537 -3.027862 -3.12882 160.424588 14.389093 20.042089 89.375838 -24.345596 15.764265 -53.247734 0.001057 0.0 0.00048 0.001057 0.0 0.00048 -136.30257 48.980034 140.374109 78.535116 -26.335769 101.648906 -6.253832 -27.839064 86.719686 -5.598476 15.822836 0.005361 83.253681 -50.258225 33.616297 -121.202894 30.452162 84.938621 9.087033 -15.965681 -4.197816 -36.091133 43.563098 27.989707 -89.835799 60.702716 81.262738 80.822017 -77.802973 52.172308 -0.013766 -1.3233 -0.414932 -156.24939 -46.142108 177.537804 3.23786 9.113972 2.947896 -147.089184 10.268468 -143.340871 59.830966 -86.721578 81.63145 9.290568 55.550558 -88.943036 -141.193753 -57.25268 -144.413879 81.491107 79.932135 -67.305623 9.681911 9.193352 -2.244062 52.092981 24.655499 -50.361847 100.823903 37.733701 -85.162065 103.500296 50.237414 -78.182436 -89.035171 -81.393377 -59.760504 -167.473161 -64.003385 -132.830894 70.380672 -72.12986 87.280162 64.733231 -82.430118 90.691952 -1.133288 3.04094 -1.042984 127.369597 -31.021011 125.726947 0.0 -0.000445 0.000525 3.683318 -7.514792 26.207733 14.887657 35.76593 -167.065471 -73.524818 72.695993 178.966816 -0.00189 -0.000445 -0.000945 12.094555 -42.662817 109.138963 55.478402 4.898812 144.426318 15.240195 17.550215 141.027509
